<?xml version="1.0" encoding="UTF-8" standalone="no"?>
<!DOCTYPE svg PUBLIC "-//W3C//DTD SVG 1.1//EN" "http://www.w3.org/Graphics/SVG/1.1/DTD/svg11.dtd">
<svg width="100%" height="100%" viewBox="0 0 1005 248" version="1.1" xmlns="http://www.w3.org/2000/svg" xmlns:xlink="http://www.w3.org/1999/xlink" xml:space="preserve" xmlns:serif="http://www.serif.com/" style="fill-rule:evenodd;clip-rule:evenodd;stroke-linecap:round;stroke-linejoin:round;stroke-miterlimit:1.5;">
    <g transform="matrix(1,0,0,1,-2115.19,-1644.26)">
        <g>
            <g transform="matrix(0.3176,0,0,0.3176,1907.33,1440.16)">
                <g transform="matrix(1.0968,0,0,1.00787,-71.2905,-9.27814)">
                    <path d="M1345.03,752.856C1345.03,743.418 1338.06,735.756 1329.46,735.756L685.899,735.756C677.309,735.756 670.336,743.418 670.336,752.856L670.336,1393.35C670.336,1402.79 677.309,1410.45 685.899,1410.45L1329.46,1410.45C1338.06,1410.45 1345.03,1402.79 1345.03,1393.35L1345.03,752.856Z" style="fill:rgb(23,23,24);stroke:url(#_Linear1);stroke-width:17.94px;"/>
                </g>
                <g transform="matrix(1.24096,0,0,1.05252,-230.124,-10.234)">
                    <path d="M903.914,1254.36L1040.57,993.78L875.335,1020.82L1059.56,802.601L986.388,965.334L1161.89,937.157L903.914,1254.36Z" style="fill:url(#_Linear2);"/>
                </g>
                <g transform="matrix(1,0,0,1.02426,22.7803,-18.4576)">
                    <path d="M951.187,756.207L951.187,654.67" style="fill:none;stroke:rgb(247,146,45);stroke-width:18.66px;stroke-miterlimit:3;"/>
                </g>
                <g transform="matrix(1,0,0,1.02426,142.748,-18.4576)">
                    <path d="M951.187,756.207L951.187,654.67" style="fill:none;stroke:rgb(246,136,49);stroke-width:18.66px;stroke-miterlimit:3;"/>
                </g>
                <g transform="matrix(1.03231,0,0,1.00233,-27.4958,-4.28508)">
                    <path d="M815.157,758.613L815.157,675.247C815.157,668.632 818.794,662.588 824.544,659.642C824.91,659.455 825.275,659.268 825.638,659.083C830.888,656.393 837.004,656.145 842.444,658.399C842.445,658.399 842.446,658.4 842.447,658.4C849.37,661.269 853.905,668.183 853.905,675.868C853.905,701.72 853.905,757.968 853.905,757.968" style="fill:none;stroke:rgb(248,173,34);stroke-width:18.57px;stroke-miterlimit:3;"/>
                </g>
                <g transform="matrix(1.03231,0,0,1.00233,372.406,-4.28508)">
                    <path d="M815.157,758.613C815.157,758.613 815.157,699.978 815.157,675.247C815.157,668.632 818.794,662.588 824.544,659.642C824.91,659.455 825.275,659.268 825.638,659.083C830.888,656.393 837.004,656.145 842.444,658.399C842.445,658.399 842.446,658.4 842.447,658.4C849.37,661.269 853.905,668.183 853.905,675.868C853.905,701.72 853.905,757.968 853.905,757.968" style="fill:none;stroke:rgb(245,107,60);stroke-width:18.57px;stroke-miterlimit:3;"/>
                </g>
            </g>
            <g transform="matrix(1,0,0,1,25.5148,1029.66)">
                <text x="2411.8px" y="816.092px" style="font-family:'Kallisto-Heavy', 'Kallisto';font-weight:900;font-size:180px;fill:rgb(248,173,34);">RE<tspan x="2676.22px 2814.28px 2951.44px " y="816.092px 816.092px 816.092px ">SRV</tspan></text>
            </g>
        </g>
    </g>
    <defs>
        <linearGradient id="_Linear1" x1="0" y1="0" x2="1" y2="0" gradientUnits="userSpaceOnUse" gradientTransform="matrix(674.692,0,0,674.692,670.336,1073.1)"><stop offset="0" style="stop-color:rgb(248,173,34);stop-opacity:1"/><stop offset="1" style="stop-color:rgb(245,107,60);stop-opacity:1"/></linearGradient>
        <linearGradient id="_Linear2" x1="0" y1="0" x2="1" y2="0" gradientUnits="userSpaceOnUse" gradientTransform="matrix(237.519,0,0,451.757,899.57,1028.48)"><stop offset="0" style="stop-color:rgb(248,173,34);stop-opacity:1"/><stop offset="1" style="stop-color:rgb(245,107,60);stop-opacity:1"/></linearGradient>
    </defs>
</svg>
