<?xml version="1.0" encoding="UTF-8" standalone="no"?>
<!DOCTYPE svg PUBLIC "-//W3C//DTD SVG 1.1//EN" "http://www.w3.org/Graphics/SVG/1.1/DTD/svg11.dtd">
<svg width="100%" height="100%" viewBox="0 0 1005 248" version="1.1" xmlns="http://www.w3.org/2000/svg" xmlns:xlink="http://www.w3.org/1999/xlink" xml:space="preserve" xmlns:serif="http://www.serif.com/" style="fill-rule:evenodd;clip-rule:evenodd;stroke-linecap:round;stroke-linejoin:round;stroke-miterlimit:1.5;">
    <g transform="matrix(1,0,0,1,-2115.19,-1644.26)">
        <g>
            <g transform="matrix(0.3176,0,0,0.3176,1907.33,1440.16)">
                <g transform="matrix(1.0968,0,0,1.00787,-71.2905,-9.27814)">
                    <path d="M1345.03,752.856C1345.03,743.418 1338.06,735.756 1329.46,735.756L685.899,735.756C677.309,735.756 670.336,743.418 670.336,752.856L670.336,1393.35C670.336,1402.79 677.309,1410.45 685.899,1410.45L1329.46,1410.45C1338.06,1410.45 1345.03,1402.79 1345.03,1393.35L1345.03,752.856Z" style="fill:rgb(23,23,24);stroke:url(#_Linear1);stroke-width:17.94px;"/>
                </g>
                <g transform="matrix(1.24096,0,0,1.05252,-230.124,-10.234)">
                    <path d="M903.914,1254.36L1040.57,993.78L875.335,1020.82L1059.56,802.601L986.388,965.334L1161.89,937.157L903.914,1254.36Z" style="fill:url(#_Linear2);"/>
                </g>
                <g transform="matrix(1,0,0,1.02426,22.7803,-18.4576)">
                    <path d="M951.187,756.207L951.187,654.67" style="fill:none;stroke:rgb(247,146,45);stroke-width:18.66px;stroke-miterlimit:3;"/>
                </g>
                <g transform="matrix(1,0,0,1.02426,142.748,-18.4576)">
                    <path d="M951.187,756.207L951.187,654.67" style="fill:none;stroke:rgb(246,136,49);stroke-width:18.66px;stroke-miterlimit:3;"/>
                </g>
                <g transform="matrix(1.03231,0,0,1.00233,-27.4958,-4.28508)">
                    <path d="M815.157,758.613L815.157,675.247C815.157,668.632 818.794,662.588 824.544,659.642C824.91,659.455 825.275,659.268 825.638,659.083C830.888,656.393 837.004,656.145 842.444,658.399C842.445,658.399 842.446,658.4 842.447,658.4C849.37,661.269 853.905,668.183 853.905,675.868C853.905,701.72 853.905,757.968 853.905,757.968" style="fill:none;stroke:rgb(248,173,34);stroke-width:18.57px;stroke-miterlimit:3;"/>
                </g>
                <g transform="matrix(1.03231,0,0,1.00233,372.406,-4.28508)">
                    <path d="M815.157,758.613C815.157,758.613 815.157,699.978 815.157,675.247C815.157,668.632 818.794,662.588 824.544,659.642C824.91,659.455 825.275,659.268 825.638,659.083C830.888,656.393 837.004,656.145 842.444,658.399C842.445,658.399 842.446,658.4 842.447,658.4C849.37,661.269 853.905,668.183 853.905,675.868C853.905,701.72 853.905,757.968 853.905,757.968" style="fill:none;stroke:rgb(245,107,60);stroke-width:18.57px;stroke-miterlimit:3;"/>
                </g>
            </g>
            <g transform="matrix(0.697181,0,0,0.587718,755.855,1309.8)">
                <path d="M2603.38,782.685L2603.38,776.865C2603.38,724.493 2581.17,695.704 2529.53,695.704L2435.82,695.704C2430.91,695.704 2428.07,699.073 2428.07,704.892L2428.07,902.742C2428.07,908.561 2430.91,911.93 2435.82,911.93L2466.28,911.93C2471.19,911.93 2474.03,908.561 2474.03,902.742L2474.03,862.621L2523.6,862.621L2546.32,905.805C2548.38,910.093 2551.48,911.93 2555.61,911.93L2590.47,911.93C2596.66,911.93 2598.99,907.336 2595.37,900.904L2569.3,856.495C2593.56,844.857 2603.38,817.906 2603.38,782.685ZM2474.03,747.77L2525.66,747.77C2545.8,747.77 2557.16,751.139 2557.16,777.172L2557.16,782.072C2557.16,808.105 2545.03,811.168 2525.66,811.168L2474.03,811.168L2474.03,747.77Z" style="fill:rgb(245,107,60);fill-rule:nonzero;"/>
                <path d="M2637.71,911.93L2776.36,911.93C2781.26,911.93 2784.1,908.561 2784.1,902.742L2784.1,869.052C2784.1,863.233 2781.26,859.864 2776.36,859.864L2675.67,859.864L2675.67,826.787L2736.86,826.787C2741.76,826.787 2744.6,823.418 2744.6,817.599L2744.6,788.81C2744.6,782.991 2741.76,779.622 2736.86,779.622L2675.67,779.622L2675.67,747.77L2776.36,747.77C2781.26,747.77 2784.1,744.401 2784.1,738.582L2784.1,704.892C2784.1,699.073 2781.26,695.704 2776.36,695.704L2637.71,695.704C2632.81,695.704 2629.97,699.073 2629.97,704.892L2629.97,902.742C2629.97,908.561 2632.81,911.93 2637.71,911.93Z" style="fill:rgb(245,107,60);fill-rule:nonzero;"/>
                <path d="M2863.88,911.93L2916.29,911.93C2959.93,911.93 2977.48,887.122 2977.48,845.47C2977.48,805.042 2961.73,786.666 2922.49,783.297L2864.14,778.091C2853.55,777.172 2849.42,773.497 2849.42,762.471C2849.42,751.445 2854.33,747.77 2865.69,747.77L2913.71,747.77C2921.71,747.77 2926.36,751.445 2928.17,759.714C2929.46,765.534 2931.53,768.596 2936.17,768.596L2966.9,768.596C2971.8,768.596 2974.9,765.227 2974.64,759.102C2972.06,718.368 2952.7,695.704 2913.71,695.704L2865.17,695.704C2821.54,695.704 2803.98,720.512 2803.98,762.165C2803.98,802.898 2819.47,820.356 2858.98,824.031L2917.33,829.237C2927.91,830.156 2932.04,833.832 2932.04,845.163C2932.04,856.189 2927.14,859.864 2915.78,859.864L2863.88,859.864C2855.88,859.864 2851.23,856.189 2849.42,847.92C2848.13,842.101 2846.07,839.038 2841.42,839.038L2810.7,839.038C2805.79,839.038 2802.69,842.407 2802.95,848.532C2805.53,889.266 2824.9,911.93 2863.88,911.93Z" style="fill:rgb(245,107,60);fill-rule:nonzero;"/>
                <path d="M3180.67,782.685L3180.67,776.865C3180.67,724.493 3158.47,695.704 3106.83,695.704L3013.11,695.704C3008.21,695.704 3005.37,699.073 3005.37,704.892L3005.37,902.742C3005.37,908.561 3008.21,911.93 3013.11,911.93L3043.58,911.93C3048.48,911.93 3051.32,908.561 3051.32,902.742L3051.32,862.621L3100.89,862.621L3123.61,905.805C3125.68,910.093 3128.78,911.93 3132.91,911.93L3167.76,911.93C3173.96,911.93 3176.28,907.336 3172.67,900.904L3146.59,856.495C3170.86,844.857 3180.67,817.906 3180.67,782.685ZM3051.32,747.77L3102.96,747.77C3123.1,747.77 3134.46,751.139 3134.46,777.172L3134.46,782.072C3134.46,808.105 3122.32,811.168 3102.96,811.168L3051.32,811.168L3051.32,747.77Z" style="fill:rgb(245,107,60);fill-rule:nonzero;"/>
                <path d="M3268.71,911.93L3310.8,911.93C3315.18,911.93 3318.28,909.48 3319.83,904.886L3389.8,706.424C3392.12,699.992 3389.54,695.704 3383.86,695.704L3351.07,695.704C3346.68,695.704 3343.84,697.848 3342.29,702.748L3289.88,855.577L3237.47,702.748C3235.92,697.848 3232.83,695.704 3228.43,695.704L3195.65,695.704C3189.97,695.704 3187.38,699.992 3189.71,706.424L3259.68,904.886C3261.22,909.48 3264.32,911.93 3268.71,911.93Z" style="fill:rgb(245,107,60);fill-rule:nonzero;"/>
            </g>
        </g>
    </g>
    <defs>
        <linearGradient id="_Linear1" x1="0" y1="0" x2="1" y2="0" gradientUnits="userSpaceOnUse" gradientTransform="matrix(674.692,0,0,674.692,670.336,1073.1)"><stop offset="0" style="stop-color:rgb(248,173,34);stop-opacity:1"/><stop offset="1" style="stop-color:rgb(245,107,60);stop-opacity:1"/></linearGradient>
        <linearGradient id="_Linear2" x1="0" y1="0" x2="1" y2="0" gradientUnits="userSpaceOnUse" gradientTransform="matrix(237.519,0,0,451.757,899.57,1028.48)"><stop offset="0" style="stop-color:rgb(248,173,34);stop-opacity:1"/><stop offset="1" style="stop-color:rgb(245,107,60);stop-opacity:1"/></linearGradient>
    </defs>
</svg>
