<?xml version="1.0" encoding="UTF-8" standalone="no"?>
<!DOCTYPE svg PUBLIC "-//W3C//DTD SVG 1.1//EN" "http://www.w3.org/Graphics/SVG/1.1/DTD/svg11.dtd">
<svg width="100%" height="100%" viewBox="0 0 1117 1240" version="1.1" xmlns="http://www.w3.org/2000/svg" xmlns:xlink="http://www.w3.org/1999/xlink" xml:space="preserve" xmlns:serif="http://www.serif.com/" style="fill-rule:evenodd;clip-rule:evenodd;stroke-linecap:round;stroke-linejoin:round;stroke-miterlimit:1.5;">
    <g transform="matrix(1,0,0,1,-453.176,-397.945)">
        <g transform="matrix(1.0968,0,0,1.00787,-71.2905,-9.27814)">
            <path d="M1345.03,752.856C1345.03,743.418 1338.06,735.756 1329.46,735.756L685.899,735.756C677.309,735.756 670.336,743.418 670.336,752.856L670.336,1393.35C670.336,1402.79 677.309,1410.45 685.899,1410.45L1329.46,1410.45C1338.06,1410.45 1345.03,1402.79 1345.03,1393.35L1345.03,752.856Z" style="fill:rgb(23,23,24);stroke:url(#_Linear1);stroke-width:12.34px;"/>
        </g>
        <g transform="matrix(1,0,0,1,4.0471,0)">
            <g opacity="0.6">
                <g transform="matrix(1,0,0,1,1.13687e-13,2.92099)">
                    <text x="737.967px" y="890.924px" style="font-family:'SatoshiVariable-Bold', 'Satoshi Variable';font-weight:900;font-size:36px;fill:white;">2</text>
                </g>
                <g transform="matrix(1,0,0,1,94.5073,2.92099)">
                    <text x="737.967px" y="890.924px" style="font-family:'SatoshiVariable-Bold', 'Satoshi Variable';font-weight:900;font-size:36px;fill:white;">3</text>
                </g>
                <g transform="matrix(1,0,0,1,189.015,2.92099)">
                    <text x="737.967px" y="890.924px" style="font-family:'SatoshiVariable-Bold', 'Satoshi Variable';font-weight:900;font-size:36px;fill:white;">4</text>
                </g>
                <g transform="matrix(1,0,0,1,378.029,2.92099)">
                    <text x="737.967px" y="890.924px" style="font-family:'SatoshiVariable-Bold', 'Satoshi Variable';font-weight:900;font-size:36px;fill:white;">6</text>
                </g>
                <g transform="matrix(1,0,0,1,472.536,2.92099)">
                    <text x="737.967px" y="890.924px" style="font-family:'SatoshiVariable-Bold', 'Satoshi Variable';font-weight:900;font-size:36px;fill:white;">7</text>
                </g>
                <g transform="matrix(1,0,0,1,567.044,2.92099)">
                    <text x="737.967px" y="890.924px" style="font-family:'SatoshiVariable-Bold', 'Satoshi Variable';font-weight:900;font-size:36px;fill:white;">8</text>
                </g>
            </g>
        </g>
        <g transform="matrix(1,0,0,1,-4.9987,127.486)">
            <g opacity="0.6">
                <g transform="matrix(1,0,0,1,1.13687e-13,2.92099)">
                    <text x="737.967px" y="890.924px" style="font-family:'SatoshiVariable-Bold', 'Satoshi Variable';font-weight:900;font-size:36px;fill:white;">9</text>
                </g>
                <g transform="matrix(1,0,0,1,94.5073,2.92099)">
                    <text x="737.967px" y="890.924px" style="font-family:'SatoshiVariable-Bold', 'Satoshi Variable';font-weight:900;font-size:36px;fill:white;">10</text>
                </g>
                <g transform="matrix(1,0,0,1,378.029,2.92099)">
                    <text x="737.967px" y="890.924px" style="font-family:'SatoshiVariable-Bold', 'Satoshi Variable';font-weight:900;font-size:36px;fill:white;">13</text>
                </g>
                <g transform="matrix(1,0,0,1,472.536,2.92099)">
                    <text x="737.967px" y="890.924px" style="font-family:'SatoshiVariable-Bold', 'Satoshi Variable';font-weight:900;font-size:36px;fill:white;">14</text>
                </g>
                <g transform="matrix(1,0,0,1,567.044,2.92099)">
                    <text x="737.967px" y="890.924px" style="font-family:'SatoshiVariable-Bold', 'Satoshi Variable';font-weight:900;font-size:36px;fill:white;">1<tspan x="753.339px " y="890.924px ">5</tspan></text>
                </g>
            </g>
        </g>
        <g transform="matrix(1,0,0,1,-11.9975,254.972)">
            <g opacity="0.6">
                <g transform="matrix(1,0,0,1,-1.13687e-13,2.92099)">
                    <text x="737.967px" y="890.924px" style="font-family:'SatoshiVariable-Bold', 'Satoshi Variable';font-weight:900;font-size:36px;fill:white;">16</text>
                </g>
                <g transform="matrix(1,0,0,1,94.5073,2.92099)">
                    <text x="737.967px" y="890.924px" style="font-family:'SatoshiVariable-Bold', 'Satoshi Variable';font-weight:900;font-size:36px;fill:white;">17</text>
                </g>
                <g transform="matrix(1,0,0,1,189.015,2.92099)">
                    <text x="737.967px" y="890.924px" style="font-family:'SatoshiVariable-Bold', 'Satoshi Variable';font-weight:900;font-size:36px;fill:white;">1<tspan x="753.339px " y="890.924px ">8</tspan></text>
                </g>
                <g transform="matrix(1,0,0,1,283.522,2.92099)">
                    <text x="737.967px" y="890.924px" style="font-family:'SatoshiVariable-Bold', 'Satoshi Variable';font-weight:900;font-size:36px;fill:white;">19</text>
                </g>
                <g transform="matrix(1,0,0,1,378.029,2.92099)">
                    <text x="737.967px" y="890.924px" style="font-family:'SatoshiVariable-Bold', 'Satoshi Variable';font-weight:900;font-size:36px;fill:white;">20</text>
                </g>
                <g transform="matrix(1,0,0,1,472.536,2.92099)">
                    <text x="737.967px" y="890.924px" style="font-family:'SatoshiVariable-Bold', 'Satoshi Variable';font-weight:900;font-size:36px;fill:white;">2<tspan x="760.107px " y="890.924px ">1</tspan></text>
                </g>
                <g transform="matrix(1,0,0,1,567.044,2.92099)">
                    <text x="737.967px" y="890.924px" style="font-family:'SatoshiVariable-Bold', 'Satoshi Variable';font-weight:900;font-size:36px;fill:white;">2<tspan x="760.107px " y="890.924px ">2</tspan></text>
                </g>
            </g>
        </g>
        <g transform="matrix(1,0,0,1,-11.9975,382.459)">
            <g opacity="0.6">
                <g transform="matrix(1,0,0,1,-5.68434e-14,2.92099)">
                    <text x="737.967px" y="890.924px" style="font-family:'SatoshiVariable-Bold', 'Satoshi Variable';font-weight:900;font-size:36px;fill:white;">2<tspan x="760.107px " y="890.924px ">3</tspan></text>
                </g>
                <g transform="matrix(1,0,0,1,94.5073,2.92099)">
                    <text x="737.967px" y="890.924px" style="font-family:'SatoshiVariable-Bold', 'Satoshi Variable';font-weight:900;font-size:36px;fill:white;">24</text>
                </g>
                <g transform="matrix(1,0,0,1,283.522,2.92099)">
                    <text x="737.967px" y="890.924px" style="font-family:'SatoshiVariable-Bold', 'Satoshi Variable';font-weight:900;font-size:36px;fill:white;">26</text>
                </g>
                <g transform="matrix(1,0,0,1,378.029,2.92099)">
                    <text x="737.967px" y="890.924px" style="font-family:'SatoshiVariable-Bold', 'Satoshi Variable';font-weight:900;font-size:36px;fill:white;">27</text>
                </g>
                <g transform="matrix(1,0,0,1,472.536,2.92099)">
                    <text x="737.967px" y="890.924px" style="font-family:'SatoshiVariable-Bold', 'Satoshi Variable';font-weight:900;font-size:36px;fill:white;">28</text>
                </g>
                <g transform="matrix(1,0,0,1,567.044,2.92099)">
                    <text x="737.967px" y="890.924px" style="font-family:'SatoshiVariable-Bold', 'Satoshi Variable';font-weight:900;font-size:36px;fill:white;">29</text>
                </g>
            </g>
        </g>
        <g transform="matrix(1,0,0,1,15.319,43.7865)">
            <path d="M903.914,1254.36L1040.57,993.78L875.335,1020.82L1059.56,802.601L986.388,965.334L1161.89,937.157L903.914,1254.36Z" style="fill:url(#_Linear2);"/>
        </g>
        <g transform="matrix(1,0,0,1.02426,22.7803,-18.4576)">
            <path d="M951.187,756.207L951.187,654.67" style="fill:none;stroke:rgb(247,146,45);stroke-width:23.71px;stroke-miterlimit:3;"/>
        </g>
        <g transform="matrix(1,0,0,1.02426,142.748,-18.4576)">
            <path d="M951.187,756.207L951.187,654.67" style="fill:none;stroke:rgb(246,136,49);stroke-width:23.71px;stroke-miterlimit:3;"/>
        </g>
        <g transform="matrix(1.03231,0,0,1.00233,-27.4958,-4.28508)">
            <path d="M815.157,758.613L815.157,674.884C815.157,668.491 818.671,662.65 824.228,659.804C824.715,659.555 825.202,659.306 825.685,659.058C830.905,656.385 836.986,656.137 842.395,658.378C842.395,658.378 842.395,658.379 842.395,658.379C849.35,661.26 853.905,668.206 853.905,675.926L853.905,757.968" style="fill:none;stroke:rgb(248,173,34);stroke-width:23.59px;stroke-miterlimit:3;"/>
        </g>
        <g transform="matrix(1.03231,0,0,1.00233,372.406,-4.28508)">
            <path d="M815.157,758.613L815.157,674.884C815.157,668.491 818.671,662.65 824.228,659.804C824.715,659.555 825.202,659.306 825.685,659.058C830.905,656.385 836.986,656.137 842.395,658.378C842.395,658.378 842.395,658.379 842.395,658.379C849.35,661.26 853.905,668.206 853.905,675.926L853.905,757.968" style="fill:none;stroke:rgb(245,107,60);stroke-width:23.59px;stroke-miterlimit:3;"/>
        </g>
        <g>
            <g transform="matrix(2.07076,0,0,2.07076,-45.1937,-26.304)">
                <path d="M749.43,719.54C751.68,719.06 753.29,722.13 751.77,723.79C750.6,725.34 747.55,724.93 747.19,722.9C746.66,721.36 747.82,719.63 749.43,719.54Z" style="fill:rgb(236,95,49);fill-rule:nonzero;"/>
            </g>
            <g transform="matrix(2.07076,0,0,2.07076,-45.1937,-26.304)">
                <path d="M352.36,741.45C355.34,739.24 358.2,744.59 354.86,745.88C352.1,747.65 349.53,742.82 352.36,741.45Z" style="fill:rgb(232,130,27);fill-rule:nonzero;"/>
            </g>
            <g transform="matrix(2.07076,0,0,2.07076,-45.1937,-26.304)">
                <path d="M596.38,745.58C598.43,744.08 601.25,746.84 600.11,748.96C599.48,751.19 595.81,750.97 595.2,748.86C594.78,747.72 595.19,746.05 596.38,745.58Z" style="fill:rgb(233,92,55);fill-rule:nonzero;"/>
            </g>
            <g transform="matrix(2.07076,0,0,2.07076,-45.1937,-26.304)">
                <path d="M529.4,748.64C532.26,747.4 534.33,751.91 531.6,753.3C528.46,755.29 525.91,749.75 529.4,748.64Z" style="fill:rgb(237,132,25);fill-rule:nonzero;"/>
            </g>
            <g transform="matrix(2.07076,0,0,2.07076,-45.1937,-26.304)">
                <path d="M669.58,748.77C672.84,747.54 674.45,752.86 671.16,753.68C668.01,754.99 666.46,749.65 669.58,748.77Z" style="fill:rgb(241,149,20);fill-rule:nonzero;"/>
            </g>
            <g transform="matrix(2.07076,0,0,2.07076,-45.1937,-26.304)">
                <path d="M289.45,753.57C293.63,751.65 298.71,755.58 298.27,760.07C298.24,764.94 291.9,767.98 288.08,764.94C283.89,762.24 284.85,755.26 289.45,753.57Z" style="fill:rgb(246,137,42);fill-rule:nonzero;"/>
            </g>
            <g transform="matrix(2.07076,0,0,2.07076,-45.1937,-26.304)">
                <path d="M429.61,757.56C431.93,754.84 435.78,758.95 433.25,761.22C431.02,763.5 427.03,759.7 429.61,757.56Z" style="fill:rgb(243,169,17);fill-rule:nonzero;"/>
            </g>
            <g transform="matrix(2.07076,0,0,2.07076,-45.1937,-26.304)">
                <path d="M379.47,762.56C382.38,760.8 385.21,765.88 381.93,767.24C379.02,769.1 376.42,763.93 379.47,762.56Z" style="fill:rgb(238,126,37);fill-rule:nonzero;"/>
            </g>
            <g transform="matrix(2.07076,0,0,2.07076,-45.1937,-26.304)">
                <path d="M624.31,771.48C627.21,769.24 630.1,774.55 626.86,775.86C624.24,777.54 621.44,772.92 624.31,771.48Z" style="fill:rgb(238,165,16);fill-rule:nonzero;"/>
            </g>
            <g transform="matrix(2.07076,0,0,2.07076,-45.1937,-26.304)">
                <path d="M463.36,788.43C468.82,785.75 475.57,791.12 474.33,797.03C473.73,802.68 466.37,805.69 461.95,802.16C457.11,798.88 458,790.67 463.36,788.43Z" style="fill:rgb(251,173,36);fill-rule:nonzero;"/>
            </g>
        </g>
        <g>
            <g transform="matrix(2.31074,0,0,2.31074,-147.292,-74.3671)">
                <path d="M594.41,204.62C595.61,204.04 597.47,204.63 597.77,206.02C598.7,208 596.41,210.11 594.5,209.24C592.38,208.65 592.43,205.34 594.41,204.62Z" style="fill:rgb(125,221,225);fill-rule:nonzero;"/>
            </g>
            <g transform="matrix(2.31074,0,0,2.31074,-147.292,-74.3671)">
                <path d="M517.28,227.17C520.71,224.97 525.68,227.95 525.38,232.01C525.53,235.92 520.69,238.78 517.35,236.74C513.68,234.91 513.67,229.06 517.28,227.17Z" style="fill:rgb(241,96,55);fill-rule:nonzero;"/>
            </g>
            <g transform="matrix(2.31074,0,0,2.31074,-147.292,-74.3671)">
                <path d="M623.21,249.08C627.83,246.61 633.85,250.89 633.19,256.06C633.22,261.27 626.59,264.51 622.39,261.58C617.82,258.85 618.32,251.19 623.21,249.08Z" style="fill:rgb(119,223,228);fill-rule:nonzero;"/>
            </g>
            <g transform="matrix(2.31074,0,0,2.31074,-147.292,-74.3671)">
                <path d="M403.43,250.65C405.04,249.32 407.92,250.96 407.48,253.05C407.58,255.09 404.7,256.22 403.29,254.82C401.9,253.86 402.05,251.54 403.43,250.65Z" style="fill:rgb(240,165,23);fill-rule:nonzero;"/>
            </g>
            <g transform="matrix(2.31074,0,0,2.31074,-147.292,-74.3671)">
                <path d="M442.33,255.22C445.58,253.75 447.37,259.39 443.95,260.17C440.85,261.18 439.24,256.21 442.33,255.22Z" style="fill:rgb(237,136,29);fill-rule:nonzero;"/>
            </g>
            <g transform="matrix(2.31074,0,0,2.31074,-147.292,-74.3671)">
                <path d="M463.55,286.63C466.78,285.43 468.24,290.92 464.97,291.6C461.89,292.72 460.26,287.3 463.55,286.63Z" style="fill:rgb(244,152,28);fill-rule:nonzero;"/>
            </g>
            <g transform="matrix(2.31074,0,0,2.31074,-147.292,-74.3671)">
                <path d="M501.52,291.59C505.14,290.69 505.71,296.98 501.97,296.8C498.78,297.14 498.25,291.77 501.52,291.59Z" style="fill:rgb(237,128,38);fill-rule:nonzero;"/>
            </g>
            <g transform="matrix(2.31074,0,0,2.31074,-147.292,-74.3671)">
                <path d="M559.42,296.63C562.19,294.88 565.02,299.77 561.91,301.13C559.05,302.99 556.47,298.09 559.42,296.63Z" style="fill:rgb(240,166,19);fill-rule:nonzero;"/>
            </g>
            <g transform="matrix(2.31074,0,0,2.31074,-147.292,-74.3671)">
                <path d="M723.33,297.47C728.36,296.15 733.67,300.83 732.95,306.01C732.96,312.12 724.85,315.85 720.23,311.78C714.98,308.01 716.95,298.7 723.33,297.47Z" style="fill:rgb(251,173,29);fill-rule:nonzero;"/>
            </g>
            <g transform="matrix(2.31074,0,0,2.31074,-147.292,-74.3671)">
                <path d="M353.57,298.66C356.7,297.73 357.98,303.06 354.79,303.75C351.48,304.74 350.05,299.16 353.57,298.66Z" style="fill:rgb(235,138,27);fill-rule:nonzero;"/>
            </g>
            <g transform="matrix(2.31074,0,0,2.31074,-147.292,-74.3671)">
                <path d="M668.59,320.59C670.73,318.18 674.4,322.07 672.23,324.19C670.12,327.06 665.65,322.82 668.59,320.59Z" style="fill:rgb(239,170,25);fill-rule:nonzero;"/>
            </g>
            <g transform="matrix(2.31074,0,0,2.31074,-147.292,-74.3671)">
                <path d="M300.56,331.83C303.87,330.36 305.43,336.18 301.95,336.67C299.02,337.58 297.81,332.61 300.56,331.83Z" style="fill:rgb(138,226,227);fill-rule:nonzero;"/>
            </g>
        </g>
        <g>
            <g transform="matrix(2.82455,0,0,2.82455,-249.188,-393.704)">
                <path d="M301.53,416.63C304.04,414.62 307.04,418.55 304.73,420.59C302.2,422.83 298.73,418.57 301.53,416.63Z" style="fill:rgb(128,220,221);fill-rule:nonzero;"/>
            </g>
            <g transform="matrix(2.82455,0,0,2.82455,-249.188,-393.704)">
                <path d="M250.42,450.53C253.61,449.3 255.4,454.68 252.02,455.55C248.81,456.72 247.2,451.37 250.42,450.53Z" style="fill:rgb(238,133,36);fill-rule:nonzero;"/>
            </g>
            <g transform="matrix(2.82455,0,0,2.82455,-249.188,-393.704)">
                <path d="M290.13,470.2C293.36,468.69 297.44,471.37 297.37,474.93C297.78,478.97 292.65,482 289.34,479.6C285.71,477.6 286.14,471.5 290.13,470.2Z" style="fill:rgb(241,92,56);fill-rule:nonzero;"/>
            </g>
            <g transform="matrix(2.82455,0,0,2.82455,-249.188,-393.704)">
                <path d="M273.44,526.58C278.94,524.75 284.81,530.46 283.2,536.03C282.17,541.43 274.85,543.92 270.73,540.3C265.97,536.67 267.51,528.03 273.44,526.58Z" style="fill:rgb(251,178,26);fill-rule:nonzero;"/>
            </g>
            <g transform="matrix(2.82455,0,0,2.82455,-249.188,-393.704)">
                <path d="M280.19,579.23C283.04,577.11 285.72,582.36 282.66,583.67C279.83,585.33 277.38,580.66 280.19,579.23Z" style="fill:rgb(240,167,17);fill-rule:nonzero;"/>
            </g>
            <g transform="matrix(2.82455,0,0,2.82455,-249.188,-393.704)">
                <path d="M255.35,628.51C259.95,626.69 265.35,631.12 264.45,636C263.92,640.95 257.33,643.8 253.47,640.52C249.25,637.5 250.42,630.13 255.35,628.51Z" style="fill:rgb(247,140,42);fill-rule:nonzero;"/>
            </g>
        </g>
        <g>
            <g transform="matrix(1.7792,0,0,1.7792,160.59,112.072)">
                <path d="M754.39,459.43C758.87,457.85 763.79,462.33 762.69,466.94C762.11,471.4 756.44,473.97 752.77,471.28C748.26,468.57 749.16,460.71 754.39,459.43Z" style="fill:rgb(125,221,225);fill-rule:nonzero;"/>
            </g>
            <g transform="matrix(2.07076,0,0,2.07076,582.648,-349.638)">
                <path d="M463.36,788.43C468.82,785.75 475.57,791.12 474.33,797.03C473.73,802.68 466.37,805.69 461.95,802.16C457.11,798.88 458,790.67 463.36,788.43Z" style="fill:rgb(251,173,36);fill-rule:nonzero;"/>
            </g>
            <g transform="matrix(1.7792,0,0,1.7792,160.59,112.072)">
                <path d="M760.19,372.12C764.22,369.93 769.6,373.43 769.29,378.01C769.46,382.7 763.54,386.1 759.66,383.32C755.54,380.91 755.9,374.14 760.19,372.12Z" style="fill:rgb(247,146,41);fill-rule:nonzero;"/>
            </g>
            <g transform="matrix(1.7792,0,0,1.7792,160.59,112.072)">
                <path d="M737.5,420.54C739.52,419.64 741.77,421.95 740.75,423.98C740.14,426.03 736.72,426.03 736.09,424C735.21,422.76 736.22,420.98 737.5,420.54Z" style="fill:rgb(240,165,20);fill-rule:nonzero;"/>
            </g>
            <g transform="matrix(1.7792,0,0,1.7792,160.59,112.072)">
                <path d="M740.46,543.48C742.74,540.84 746.5,544.79 744.16,547.11C741.97,549.77 737.8,545.76 740.46,543.48Z" style="fill:rgb(237,143,26);fill-rule:nonzero;"/>
            </g>
            <g transform="matrix(2.31074,0,0,2.31074,106.656,483.862)">
                <path d="M623.21,249.08C627.83,246.61 633.85,250.89 633.19,256.06C633.22,261.27 626.59,264.51 622.39,261.58C617.82,258.85 618.32,251.19 623.21,249.08Z" style="fill:rgb(119,223,228);fill-rule:nonzero;"/>
            </g>
            <g transform="matrix(1.7792,0,0,1.7792,160.59,112.072)">
                <path d="M747.46,588.64C750.5,586.87 752.63,592.2 749.49,593.31C746.61,594.44 744.71,589.93 747.46,588.64Z" style="fill:rgb(136,222,223);fill-rule:nonzero;"/>
            </g>
            <g transform="matrix(1.7792,0,0,1.7792,160.59,112.072)">
                <path d="M763.56,612.72C767.01,611.21 768.5,617.37 764.88,617.79C761.92,618.33 760.83,613.71 763.56,612.72Z" style="fill:rgb(239,172,18);fill-rule:nonzero;"/>
            </g>
            <g transform="matrix(1.7792,0,0,1.7792,160.59,112.072)">
                <path d="M749.43,719.54C751.68,719.06 753.29,722.13 751.77,723.79C750.6,725.34 747.55,724.93 747.19,722.9C746.66,721.36 747.82,719.63 749.43,719.54Z" style="fill:rgb(236,95,49);fill-rule:nonzero;"/>
            </g>
        </g>
    </g>
    <defs>
        <linearGradient id="_Linear1" x1="0" y1="0" x2="1" y2="0" gradientUnits="userSpaceOnUse" gradientTransform="matrix(674.692,0,0,674.692,670.336,1073.1)"><stop offset="0" style="stop-color:rgb(248,173,34);stop-opacity:1"/><stop offset="1" style="stop-color:rgb(245,107,60);stop-opacity:1"/></linearGradient>
        <linearGradient id="_Linear2" x1="0" y1="0" x2="1" y2="0" gradientUnits="userSpaceOnUse" gradientTransform="matrix(237.519,0,0,451.757,899.57,1028.48)"><stop offset="0" style="stop-color:rgb(248,173,34);stop-opacity:1"/><stop offset="1" style="stop-color:rgb(245,107,60);stop-opacity:1"/></linearGradient>
    </defs>
</svg>
