<?xml version="1.0" standalone="no"?>
<!DOCTYPE svg PUBLIC "-//W3C//DTD SVG 20010904//EN"
 "http://www.w3.org/TR/2001/REC-SVG-20010904/DTD/svg10.dtd">
<svg version="1.0" xmlns="http://www.w3.org/2000/svg"
 width="992.000000pt" height="992.000000pt" viewBox="0 0 992.000000 992.000000"
 preserveAspectRatio="xMidYMid meet">
<metadata>
Created by potrace 1.14, written by Peter Selinger 2001-2017
</metadata>
<g transform="translate(0.000000,992.000000) scale(0.100000,-0.100000)"
fill="#000000" stroke="none">
<path d="M7410 9876 c-98 -22 -180 -73 -230 -142 -65 -91 -64 -83 -70 -594
l-5 -465 -642 -3 -643 -2 0 -100 c0 -118 -14 -161 -62 -190 -40 -24 -60 -25
-103 -4 -51 24 -65 64 -65 188 l0 106 -647 -2 -648 -3 -5 -121 c-5 -129 -11
-143 -61 -170 -39 -20 -71 -18 -110 9 -45 30 -58 71 -58 190 l-1 97 -642 -2
-643 -3 -5 -117 c-4 -96 -8 -120 -24 -137 -29 -32 -86 -46 -129 -32 -63 21
-71 39 -77 169 l-5 117 -135 0 -135 0 -5 -121 c-5 -133 -11 -147 -68 -171 -48
-20 -96 -8 -132 33 -30 34 -30 36 -30 149 l0 115 -800 0 -800 0 -32 -29 -33
-29 -3 -4137 c-2 -3685 0 -4139 13 -4165 8 -16 29 -36 45 -45 26 -13 529 -15
4527 -17 2474 -1 4429 -4 4346 -5 l-153 -4 0 -104 0 -105 138 0 c158 0 236 12
302 45 57 29 125 101 153 163 l22 47 0 4180 0 4180 -27 50 c-34 65 -101 132
-158 159 -40 19 -67 21 -237 24 l-193 4 0 -101 0 -101 -645 0 -645 0 0 448 c0
493 -1 505 -61 595 -79 119 -241 185 -379 153z m154 -237 c56 -44 56 -40 56
-519 l0 -440 -140 0 -140 0 0 435 c0 482 1 487 62 525 46 28 126 27 162 -1z
m-447 -1121 c-2 -29 -3 -8 -3 47 0 55 1 79 3 53 2 -26 2 -71 0 -100z m510 0
c-2 -29 -3 -8 -3 47 0 55 1 79 3 53 2 -26 2 -71 0 -100z m1900 -6125 c-1
-1138 -2 -207 -2 2067 0 2274 1 3205 2 2068 2 -1138 2 -2998 0 -4135z m-4040
4915 c-35 -68 -104 -197 -152 -288 -96 -181 -212 -399 -357 -675 -111 -210
-210 -397 -407 -768 -78 -148 -141 -271 -139 -273 2 -2 148 17 323 41 176 25
428 59 560 75 132 17 400 53 595 80 195 27 420 56 500 65 80 9 159 18 175 21
l30 5 -2 -253 -2 -253 -228 -240 c-125 -132 -664 -697 -1198 -1255 -534 -558
-1076 -1125 -1205 -1260 -790 -826 -832 -869 -808 -829 9 14 98 158 198 320
323 520 743 1199 1483 2394 143 231 300 484 349 563 49 79 88 146 85 148 -2 3
-184 -20 -403 -51 -220 -31 -669 -94 -999 -140 -871 -122 -1179 -164 -1183
-160 -4 4 2838 2855 2845 2855 3 0 -24 -55 -60 -122z m1676 -1645 c-7 -2 -19
-2 -25 0 -7 3 -2 5 12 5 14 0 19 -2 13 -5z m-76 -9 c-3 -3 -12 -4 -19 -1 -8 3
-5 6 6 6 11 1 17 -2 13 -5z m-60 -10 c-3 -3 -12 -4 -19 -1 -8 3 -5 6 6 6 11 1
17 -2 13 -5z"/>
</g>
</svg>
